<svg width="2972" height="1813" viewBox="0 0 2972 1813" fill="none" xmlns="http://www.w3.org/2000/svg">
<g filter="url(#filter0_f_4_5)">
<path d="M1895.05 1301.49C1954.06 1261.15 2136.97 1326.27 2197.88 1386.3C2258.8 1446.33 2265.94 1474.92 2239.29 1521.14C2212.64 1567.35 1998.32 1643.11 1914.4 1600.39C1830.48 1557.66 1836.04 1341.83 1895.05 1301.49Z" fill="#2E8BC0" fill-opacity="0.71"/>
</g>
<g filter="url(#filter1_f_4_5)">
<path d="M2080.73 1147.04C2146.85 868.06 2534.63 1051.58 2612.8 1147.04C2690.98 1242.5 2657.92 1432.64 2554.85 1498.49C2451.78 1564.33 2258.09 1529.27 2167.07 1486.02C2076.06 1442.77 2014.61 1426.01 2080.73 1147.04Z" fill="#2E8BC0" fill-opacity="0.54"/>
</g>
<defs>
<filter id="filter0_f_4_5" x="1710.9" y="1148.9" width="683.2" height="604.2" filterUnits="userSpaceOnUse" color-interpolation-filters="sRGB">
<feFlood flood-opacity="0" result="BackgroundImageFix"/>
<feBlend mode="normal" in="SourceGraphic" in2="BackgroundImageFix" result="shape"/>
<feGaussianBlur stdDeviation="70.05" result="effect1_foregroundBlur_4_5"/>
</filter>
<filter id="filter1_f_4_5" x="1843.6" y="789.6" width="1021.8" height="954.8" filterUnits="userSpaceOnUse" color-interpolation-filters="sRGB">
<feFlood flood-opacity="0" result="BackgroundImageFix"/>
<feBlend mode="normal" in="SourceGraphic" in2="BackgroundImageFix" result="shape"/>
<feGaussianBlur stdDeviation="104.7" result="effect1_foregroundBlur_4_5"/>
</filter>
</defs>
</svg>
