<svg width="34" height="24" viewBox="0 0 34 24" fill="none" xmlns="http://www.w3.org/2000/svg">
<path d="M6.64728 1.2793C6.54654 1.38003 5.43693 3.54737 3.7084 6.95405C2.22408 9.76853 1.50979 11.7039 1.17934 12.5708C1.10226 12.7753 1.05189 12.9768 1 13.1844" stroke="black" stroke-width="2" stroke-linecap="round"/>
<path d="M6.64742 1.43196C7.20452 1.12823 8.72318 0.821448 9.69771 1.12518C10.389 1.34063 10.7654 2.09132 11.2248 2.77739C11.4406 3.09963 11.6323 3.46499 11.7849 3.92135C11.9624 4.45197 11.7361 4.99128 11.4323 5.44764C10.6341 6.64707 9.60232 6.97546 8.35687 7.63635C7.23853 8.22978 6.14374 8.14765 5.35541 8.04692C5.05589 8.00865 5.02039 7.74471 5.34702 7.64093C6.33531 7.32689 7.30678 7.63787 7.68758 7.84087C8.02981 8.0233 8.42555 8.39949 8.85749 8.8818C9.82289 9.95978 9.14139 12.2137 8.76057 12.9524C8.22009 14.0009 7.21215 14.555 5.38441 15.0908C3.92588 15.5183 2.83321 15.0679 2.52872 14.8145C2.01817 14.0514 1.91591 13.0883 1.99147 12.1984C2.06702 11.8627 2.21812 11.7619 2.3738 11.6581" stroke="black" stroke-width="2" stroke-linecap="round"/>
<path d="M15.4995 2.5C14.5914 4.21403 12.9567 7.78708 11.9677 10.0712C11.3535 11.4896 11.3297 12.6682 11.3267 14.4753C11.3251 15.396 12.6973 15.3209 13.5123 15.4475C13.7168 15.4735 13.9183 15.4735 14.0976 15.4231C14.277 15.3728 14.4281 15.272 14.889 15.0156" stroke="black" stroke-width="2" stroke-linecap="round"/>
<path d="M19.6208 9.06306C19.3171 9.36527 18.8088 10.4825 18.2998 11.8562C17.9684 12.7505 17.9419 13.587 18.0175 14.2479C18.048 14.5149 18.2441 14.6066 18.4227 14.6836C19.5294 15.1613 21.3455 14.7622 22.0606 14.2799C22.6747 13.8657 23.229 13.0864 23.7151 12.398C24.5833 11.1687 23.7433 8.96233 23.4388 8.75933C23.1343 8.55634 22.2231 8.45254 21.0281 8.5281C20.4878 8.75475 20.2329 9.01117 19.9536 9.23935C19.8253 9.3668 19.7246 9.5179 19.6208 9.67358" stroke="black" stroke-width="2" stroke-linecap="round"/>
<path d="M32.1362 10.5897C32.1362 10.4889 32.1362 9.73188 32.0606 8.6131C32.0323 8.19359 31.834 8.09874 31.4791 8.04685C30.5783 7.91512 29.7979 8.09569 29.4171 8.29869C28.6626 8.70091 27.9175 9.61893 27.3558 10.3073C27.0274 10.7098 26.7438 11.1468 26.6675 11.755C26.4895 13.1737 27.1483 13.7918 27.7077 14.5046C27.9528 14.817 28.3189 15.0144 28.7745 15.2433C29.4552 15.5854 30.1505 15.2204 30.5053 14.9419C31.4265 14.2188 31.7271 13.4927 32.1095 12.8562C32.5262 12.1625 32.3895 11.4566 32.5422 11.2772C33.0847 10.6398 32.1881 13.1294 31.9591 13.9193C31.7467 14.6523 31.3242 15.3181 30.9419 15.9546C30.535 16.6318 30.1551 17.403 29.5186 18.2433C28.8424 19.136 28.1709 19.5917 27.5596 20.0763C26.923 20.581 25.5334 21.521 24.3803 22.0613C23.546 22.4522 22.3221 22.7481 19.9098 22.7748C18.656 22.597 18.0958 22.394 17.7913 22.1406C17.6379 21.988 17.4868 21.7865 17.0259 21.2737" stroke="black" stroke-width="2" stroke-linecap="round"/>
</svg>
